inDegrees=no
num_controls=7
num_derivatives=13
num_iterations=108
num_multipliers=7
num_parameters=0
num_slacks=7
num_states=26
objective=0.448467
objective_accelerations=0.050184
objective_balance=0.007412
objective_effort=0.036919
objective_height=0.349010
objective_ligament=0.004944
solver_duration=1580.548307
status=Solve_Succeeded
success=true
DataType=double
version=3
OpenSimVersion=4.5
endheader
time	/jointset/ground_pelvis/pelvis_tilt/value	/jointset/ground_pelvis/pelvis_tx/value	/jointset/ground_pelvis/pelvis_ty/value	/jointset/hip_l/hip_flexion_l/value	/jointset/hip_l/hip_adduction_l/value	/jointset/hip_l/hip_rotation_l/value	/jointset/back/lumbar_extension/value	/jointset/patellofemoral_l/patellar_flexion_l/value	/jointset/knee_l/knee_flexion_l/value	/jointset/knee_l/knee_adduction_l/value	/jointset/knee_l/knee_rotation_l/value	/jointset/ankle_l/ankle_angle_l/value	/jointset/subtalar_l/subtalar_angle_l/value	/jointset/ground_pelvis/pelvis_tilt/speed	/jointset/ground_pelvis/pelvis_tx/speed	/jointset/ground_pelvis/pelvis_ty/speed	/jointset/hip_l/hip_flexion_l/speed	/jointset/hip_l/hip_adduction_l/speed	/jointset/hip_l/hip_rotation_l/speed	/jointset/back/lumbar_extension/speed	/jointset/patellofemoral_l/patellar_flexion_l/speed	/jointset/knee_l/knee_flexion_l/speed	/jointset/knee_l/knee_adduction_l/speed	/jointset/knee_l/knee_rotation_l/speed	/jointset/ankle_l/ankle_angle_l/speed	/jointset/subtalar_l/subtalar_angle_l/speed	/forceset/tau_hip_flexion_l	/forceset/tau_hip_adduction_l	/forceset/tau_hip_rotation_l	/forceset/tau_knee_flexion_l	/forceset/tau_ankle_angle_l	/forceset/tau_subtalar_angle_l	/forceset/tau_lumbar_extension	lambda_cid13_p0	lambda_cid13_p1	lambda_cid13_p2	lambda_cid13_p3	lambda_cid13_p4	lambda_cid13_p5	lambda_cid14_p0	/jointset/ground_pelvis/pelvis_tilt/accel	/jointset/ground_pelvis/pelvis_tx/accel	/jointset/ground_pelvis/pelvis_ty/accel	/jointset/hip_l/hip_flexion_l/accel	/jointset/hip_l/hip_adduction_l/accel	/jointset/hip_l/hip_rotation_l/accel	/jointset/back/lumbar_extension/accel	/jointset/patellofemoral_l/patellar_flexion_l/accel	/jointset/knee_l/knee_flexion_l/accel	/jointset/knee_l/knee_adduction_l/accel	/jointset/knee_l/knee_rotation_l/accel	/jointset/ankle_l/ankle_angle_l/accel	/jointset/subtalar_l/subtalar_angle_l/accel	gamma_cid13_p0	gamma_cid13_p1	gamma_cid13_p2	gamma_cid13_p3	gamma_cid13_p4	gamma_cid13_p5	gamma_cid14_p0
1.5	-0.4540765384737085	-0.0755266665595217	0.7603044109963665	1.280469827576736	-0.3093682956390675	-0.04293232423917828	-0.3444238810910048	0.69684959633535	0.696849596335353	-0.1724440586381437	0.1733885845299244	0.03716585303257782	-0.04875118963010402	0.7461475576022832	0.264579494887611	0.4983239245716695	-2.372270811481795	0.03094083356761022	-0.6089300773078946	0.5642915571026814	-1.769855770409745	-1.76985577040975	0.00369686163528888	-0.007639656427609974	-0.2370445684613375	0.004929097951508914	-0.2530124582531246	0.03087820342727613	-0.02106208977083096	-0.2002616930330849	0.1413130915333037	0.03124070343349973	0.22676750189157	6.198739271226159	-17.27811175494069	5.35047459610482	-5.349062748923125	-609.6822267367669	-48.23466030370771	-27.82560742792122	0.6579666540160762	0.6845503256482621	-0.3062538909486162	-1.538896397354012	0.5908827257282799	-0.3338571755101042	1.731817974760555	-1.080217824149599	-1.080217824149595	0.0713590377777909	0.003665693677733395	-0.1467828207803642	0.5688680957294292	2.963920947019298e-07	6.528189493539313e-07	-1.49016915125957e-06	-1.082566428210712e-07	3.670040911636075e-07	-6.956926803741306e-08	3.094871234644222e-07
1.51	-0.4465824908534117	-0.07284681485500873	0.7652714212361094	1.256672183108766	-0.30903051367037	-0.0490372646015907	-0.3386955625102979	0.6790990816798085	0.6790990816798143	-0.1724061705056352	0.1733131996368957	0.03478819402146927	-0.04867472141676204	0.7525620627531504	0.271365142334464	0.4949828551897653	-2.386952104132454	0.03661618287015717	-0.6119437643576016	0.5813214795475219	-1.780015750383568	-1.780015750383576	0.003838438503202118	-0.007461889212728428	-0.2384375835063946	0.0103661983160131	-0.2451991876542287	0.03030305193310739	-0.02090135063926121	-0.1987715699876006	0.141166272760817	0.03060478061402232	0.2207533559885363	6.379683907119889	-17.14648755931467	5.458420271113141	-5.306376701339422	-605.3678509164928	-48.50088222627861	-28.84892164698239	0.6182339889826876	0.6717229131873134	-0.3622658136938935	-1.386816195517171	0.5559551697869994	-0.2677404755554366	1.680977455670219	-0.9492280400106431	-0.9492280400111055	-0.02066859012798949	0.02137566512098472	-0.1281066357680138	0.5313348515454278	2.160666677428795e-07	8.620100539709116e-07	-1.121685428878159e-06	-1.532075516375044e-08	3.157728168683489e-07	-5.261790096520083e-10	2.751863936603426e-07
1.52	-0.4390272898729339	-0.07009987648423052	0.7702021743116567	1.232736911614971	-0.3086359593811933	-0.05516886503567108	-0.3327984650898778	0.6612538992333261	0.6612538992333347	-0.1723681117247327	0.1732389011019614	0.03239809570203022	-0.04854384143082811	0.7583782296384435	0.2779968281406568	0.4910724917325582	-2.399796216646922	0.04229529766345646	-0.6142620916414865	0.5980473250453392	-1.788789328597872	-1.788789328597884	0.003730991314108541	-0.007422384808741117	-0.2395324301274369	0.01581145246989789	-0.2373859170553328	0.02972790043893865	-0.02074061150769119	-0.1972814469421164	0.1410194539883302	0.02996885779454488	0.2147392100855026	6.55282872073431	-17.01659052457156	5.570174509730748	-5.255659300466175	-601.1786134309573	-48.83519848874403	-29.85515465855113	0.5382990009012447	0.6537579975162314	-0.4201127060091946	-1.171460370115611	0.5916358238787472	-0.1947852223456822	1.67100258535592	-0.8029374722459209	-0.8029374722459208	0.0215542263764266	-0.02398686850101441	-0.08714913597739603	0.5704988536055501	1.449293832807437e-07	1.041398678572216e-06	-7.91983673083522e-07	6.15650318332612e-08	2.747185223969021e-07	5.633805165306933e-08	2.430961873799452e-07
1.53	-0.4314169769851923	-0.06728743195936865	0.7750910333817164	1.208682502234243	-0.3081843335038066	-0.06132185291565329	-0.3267356743871753	0.643328243894829	0.6433282438948342	-0.1723309073504844	0.173165472951479	0.02999872363823434	-0.04835815505457432	0.7635777774910047	0.2844617878292828	0.4866097728660627	-2.410768884481036	0.04804145976906994	-0.6162880011090954	0.6144556664313968	-1.796093300874023	-1.796093300874032	0.003730897662946405	-0.007239025402961501	-0.2402814668613227	0.0213410893681834	-0.2295265981473461	0.02898192727075406	-0.02062250228670483	-0.1958651014821647	0.1410526095344422	0.02920146462712991	0.2086643163228676	6.775824660390983	-16.84004749958966	5.676459936677042	-5.241649743270731	-597.0690060772222	-49.10560778312966	-30.83997612860951	0.4948119656479659	0.6383522900016532	-0.4727382314633208	-1.012635419313797	0.567726785821929	-0.1991644238045917	1.617477555666331	-0.6569008576567132	-0.6569008576563383	-0.007433664901444766	0.04326094192046111	-0.05968993265780794	0.5463274245856468	8.355450022157951e-08	1.189122168156865e-06	-5.034877567873311e-07	1.213975868786946e-07	2.444772689882552e-07	1.002622453029361e-07	2.133546623434604e-07
1.54	-0.4237578627612821	-0.06441124037052733	0.7799325879122122	1.184527873089322	-0.3076749219289798	-0.06749363401327881	-0.320510454742525	0.625336994083099	0.6253369940831006	-0.1722930324135556	0.1730946311144151	0.02759367940898687	-0.04811674604600856	0.7681384968721414	0.2907462409365502	0.4816115838198238	-2.419840169485327	0.05385243715145469	-0.6180207351701483	0.6305331134348799	-1.801908223244457	-1.801908223244463	0.00386510385022781	-0.006905122125059312	-0.240666863217754	0.02695597893229277	-0.2216672792393597	0.02823595410256949	-0.02050439306571853	-0.194448756022213	0.1410857650805545	0.02843407145971497	0.2025894225602326	6.990028178263179	-16.66424380712451	5.785466280934842	-5.208609937849713	-593.0942724294418	-49.43231912384622	-31.79910063538337	0.4105333066162837	0.6176566812445421	-0.5272067419578385	-0.7911838041507806	0.6045988792330026	-0.1361501410344965	1.60482370884097	-0.5051274911025099	-0.5051274911025055	0.04841419406513332	0.006121905923711243	-0.01442106048651079	0.5875493867703229	4.522146513647189e-08	1.298811091999219e-06	-3.424538313815153e-07	1.587583685676875e-07	2.295910512021513e-07	1.348211323444368e-07	1.978766530398268e-07
1.55	-0.4160563102108236	-0.06147315668445452	0.7847215355368254	1.160292007734161	-0.3071072252712037	-0.07368073275991736	-0.3141262526280183	0.6072950298079859	0.6072950298079894	-0.1722536645595935	0.1730274898584142	0.02518660676441026	-0.04781890707043158	0.7720643742300227	0.2968345626848851	0.4760932827652599	-2.427011848615837	0.05968385347457699	-0.6192779937225931	0.6462410342781003	-1.806237524784664	-1.806237524784675	0.003978650486067652	-0.006555572296969604	-0.2406865942038925	0.03261239608995201	-0.2137988048354323	0.02732165072550528	-0.02040793461894922	-0.1930101999244671	0.1411489952320639	0.02755052096773687	0.1964702205498968	7.207798354355069	-16.43980268598645	5.888072208877585	-5.164248009489605	-589.1651412682854	-49.6851792731327	-32.72810979357548	0.3674806263419723	0.5990652025876492	-0.5767937468284253	-0.6319871860679641	0.5718161587792346	-0.1021469425468736	1.54383499380888	-0.359805309219512	-0.3598053092200598	-0.01142001565238907	0.04463683920322588	0.01342417994108166	0.5545923580502077	3.343664619538454e-08	1.364677581399367e-06	-3.28278286784167e-07	1.702277592155656e-07	2.323965048941938e-07	1.58589557424125e-07	1.988326944718686e-07
1.56	-0.4083187257515928	-0.05847526072470643	0.7894527697589691	1.135994060143981	-0.3064813338202109	-0.07987673073811986	-0.3075869595607301	0.5892171777527226	0.5892171777527284	-0.1722140102220721	0.1729628971642846	0.02278117146949599	-0.0474645230277207	0.7753448786266209	0.3027086956716079	0.470068903325786	-2.432256616489023	0.06549139579480286	-0.6198005814829338	0.6615513039911731	-1.809085779274458	-1.809085779274472	0.003922400562101825	-0.006395409750817961	-0.2403393932852869	0.03826499235907063	-0.2059303304315049	0.02640734734844109	-0.02031147617217999	-0.1915716438267212	0.1412122253835733	0.02666697047575879	0.190351018539561	7.41606732377529	-16.21571061830919	5.993032758513491	-5.096032883536958	-585.3793661446523	-49.99433849922031	-33.62262791189978	0.2814587143596926	0.5748189289221388	-0.6284224189397929	-0.4058015526860584	0.5998240786537103	0.01078401738632905	1.525293482811459	-0.2089180810198967	-0.2089180810198966	0.01445488210399928	-0.03175555046420975	0.05896532046230541	0.5867852090622008	2.29604934398909e-08	1.422404561563047e-06	-3.144551988087713e-07	1.795664113229841e-07	2.369351403231794e-07	1.81622305608642e-07	1.992363434684627e-07
